<svg width="80" height="80" viewBox="0 0 80 80" fill="none" xmlns="http://www.w3.org/2000/svg">
<circle cx="40" cy="40" r="40" fill="#B58B16"/>
<mask id="path-2-outside-1_42_22" maskUnits="userSpaceOnUse" x="13" y="21" width="53" height="42" fill="black">
<rect fill="white" x="13" y="21" width="53" height="42"/>
<path d="M16.1641 47.2031C16.1641 45.0807 16.1901 43.4792 16.2422 42.3984C16.2943 41.3047 16.431 39.7031 16.6523 37.5938L14.4062 37.3008C14.1328 36.4544 13.9505 35.6992 13.8594 35.0352C13.7812 34.3711 13.7422 33.5117 13.7422 32.457C13.9505 32.2747 14.2956 32.0599 14.7773 31.8125C15.2721 31.5521 15.8516 31.3307 16.5156 31.1484C17.1927 30.9531 17.8763 30.8555 18.5664 30.8555C20.1419 30.8555 21.2552 31.194 21.9062 31.8711C22.5703 32.5482 22.9023 33.5638 22.9023 34.918C22.9023 35.6732 22.7917 36.6953 22.5703 37.9844C22.2057 40.0547 22.0234 41.1419 22.0234 41.2461C22.0234 41.3112 22.069 41.3763 22.1602 41.4414C22.2513 41.4935 22.349 41.5195 22.4531 41.5195C22.5703 41.5195 22.6484 41.474 22.6875 41.3828C22.6745 41.4349 22.8242 40.7773 23.1367 39.4102C23.5143 37.6133 23.8984 36.1484 24.2891 35.0156C24.6927 33.8828 25.3307 32.9128 26.2031 32.1055C27.0755 31.2982 28.2604 30.8945 29.7578 30.8945C31.6068 30.8945 32.9414 31.4284 33.7617 32.4961C34.582 33.5508 34.9922 34.957 34.9922 36.7148C34.9922 38.1081 34.7578 39.6576 34.2891 41.3633C34.2891 41.4284 34.3346 41.4935 34.4258 41.5586C34.5169 41.6107 34.6146 41.6367 34.7188 41.6367C34.8359 41.6367 34.9141 41.5911 34.9531 41.5L35.2266 40.4062C35.6953 38.4792 36.1576 36.8776 36.6133 35.6016C37.082 34.3255 37.7786 33.2253 38.7031 32.3008C39.6406 31.3633 40.8581 30.8945 42.3555 30.8945C44.3216 30.8945 45.7344 31.526 46.5938 32.7891C47.4661 34.0521 47.9023 35.6406 47.9023 37.5547C47.9023 38.9089 47.7721 40.2695 47.5117 41.6367C47.2643 43.0039 46.9974 44.1497 46.7109 45.0742C46.4375 45.9987 46.099 47.0664 45.6953 48.2773L45.7344 48.3164L48.625 47.1055C49.6406 47.9779 50.2331 49.1367 50.4023 50.582C50.4023 50.6732 50.1094 51.0508 49.5234 51.7148C48.9375 52.3659 48.1628 52.9779 47.1992 53.5508C46.2487 54.1107 45.1549 54.3906 43.918 54.3906C42.681 54.3906 41.6719 54.0586 40.8906 53.3945C40.1094 52.7305 39.7188 51.5977 39.7188 49.9961C39.7188 48.2122 39.7513 46.3828 39.8164 44.5078C39.8945 42.6198 40.0052 40.9271 40.1484 39.4297C39.9271 39.2474 39.6211 39.1497 39.2305 39.1367C38.8398 39.5143 38.3516 40.3411 37.7656 41.6172C37.1797 42.8802 36.6393 44.2344 36.1445 45.6797C35.6497 47.112 35.3372 48.2318 35.207 49.0391C35.3893 50.3151 35.6693 51.5781 36.0469 52.8281C35.8125 53.2708 35.3307 53.6419 34.6016 53.9414C33.8724 54.2409 32.974 54.3906 31.9062 54.3906C30.9427 54.3906 30.1875 54.3125 29.6406 54.1562C29.0938 54 28.7161 53.8372 28.5078 53.668C28.3125 53.4987 28.2148 53.388 28.2148 53.3359C28.2018 53.2188 28.1693 52.9128 28.1172 52.418C28.0651 51.9102 28.013 51.207 27.9609 50.3086C27.9089 49.3971 27.8828 48.362 27.8828 47.2031C27.8828 46.0964 27.9674 44.7096 28.1367 43.043C28.1497 42.8346 28.1888 42.3398 28.2539 41.5586C28.319 40.7773 28.3516 40.0677 28.3516 39.4297C28.1302 39.2474 27.8242 39.1497 27.4336 39.1367C27.2122 39.306 26.5938 40.3867 25.5781 42.3789C24.5625 44.3711 23.8854 45.7773 23.5469 46.5977C23.5208 46.7799 23.5078 46.9557 23.5078 47.125C23.5078 47.776 23.6055 48.6549 23.8008 49.7617C23.9961 50.8555 24.237 51.8776 24.5234 52.8281C24.2891 53.2708 23.8073 53.6419 23.0781 53.9414C22.349 54.2409 21.4505 54.3906 20.3828 54.3906C19.4193 54.3906 18.6445 54.3125 18.0586 54.1562C17.4857 54 17.082 53.8372 16.8477 53.668C16.6133 53.4857 16.4961 53.375 16.4961 53.3359C16.4831 53.2188 16.4505 52.9128 16.3984 52.418C16.3464 51.9102 16.2943 51.207 16.2422 50.3086C16.1901 49.3971 16.1641 48.362 16.1641 47.2031ZM55.3117 25.9727C55.3117 24.8268 55.6828 23.8958 56.425 23.1797C57.1802 22.4635 58.3781 22.1055 60.0187 22.1055C61.6594 22.1055 62.8508 22.4635 63.593 23.1797C64.3482 23.8958 64.7258 24.8268 64.7258 25.9727C64.7258 26.6237 64.4979 27.2227 64.0422 27.7695C63.5995 28.3164 63.0135 28.7526 62.2844 29.0781C61.5552 29.3906 60.8 29.5469 60.0187 29.5469C59.1724 29.5469 58.3846 29.3646 57.6555 29C56.9393 28.6224 56.3664 28.1536 55.9367 27.5938C55.5201 27.0339 55.3117 26.4935 55.3117 25.9727ZM57.6164 56.832C57.6424 56.6628 57.6555 56.3698 57.6555 55.9531C57.6555 55.3542 57.5969 54.0065 57.4797 51.9102C57.4016 50.4648 57.3299 48.375 57.2648 45.6406C57.1997 42.8932 57.1672 41.1484 57.1672 40.4062C57.1672 39.4427 57.1867 38.4922 57.2258 37.5547L54.3547 37.1445C54.0812 36.1289 53.938 34.8138 53.925 33.1992C54.1854 32.8737 54.6542 32.5286 55.3312 32.1641C56.0083 31.7865 56.7831 31.474 57.6555 31.2266C58.5409 30.9792 59.4068 30.8555 60.2531 30.8555C61.412 30.8555 62.3365 31.0443 63.0266 31.4219C63.7167 31.7865 64.2115 32.3398 64.5109 33.082C64.8104 33.8112 64.9602 34.7552 64.9602 35.9141C64.9602 37.0469 64.9081 38.3164 64.8039 39.7227C64.7128 41.1289 64.6607 41.9688 64.6477 42.2422C64.4263 45.1458 64.2831 47.4896 64.218 49.2734C64.1008 52.1901 63.951 54.4818 63.7687 56.1484C63.5995 57.8281 63.2805 59.0521 62.8117 59.8203C62.2518 60.7448 61.5487 61.4089 60.7023 61.8125C59.856 62.2292 58.8013 62.4375 57.5383 62.4375C56.2753 62.4375 55.1424 62.2161 54.1398 61.7734C53.1372 61.3307 52.4341 60.6732 52.0305 59.8008C52.0435 58.9805 52.1672 58.1797 52.4016 57.3984C52.6359 56.6172 53.007 55.9727 53.5148 55.4648L57.6164 56.832Z"/>
</mask>
<path d="M16.1641 47.2031C16.1641 45.0807 16.1901 43.4792 16.2422 42.3984C16.2943 41.3047 16.431 39.7031 16.6523 37.5938L14.4062 37.3008C14.1328 36.4544 13.9505 35.6992 13.8594 35.0352C13.7812 34.3711 13.7422 33.5117 13.7422 32.457C13.9505 32.2747 14.2956 32.0599 14.7773 31.8125C15.2721 31.5521 15.8516 31.3307 16.5156 31.1484C17.1927 30.9531 17.8763 30.8555 18.5664 30.8555C20.1419 30.8555 21.2552 31.194 21.9062 31.8711C22.5703 32.5482 22.9023 33.5638 22.9023 34.918C22.9023 35.6732 22.7917 36.6953 22.5703 37.9844C22.2057 40.0547 22.0234 41.1419 22.0234 41.2461C22.0234 41.3112 22.069 41.3763 22.1602 41.4414C22.2513 41.4935 22.349 41.5195 22.4531 41.5195C22.5703 41.5195 22.6484 41.474 22.6875 41.3828C22.6745 41.4349 22.8242 40.7773 23.1367 39.4102C23.5143 37.6133 23.8984 36.1484 24.2891 35.0156C24.6927 33.8828 25.3307 32.9128 26.2031 32.1055C27.0755 31.2982 28.2604 30.8945 29.7578 30.8945C31.6068 30.8945 32.9414 31.4284 33.7617 32.4961C34.582 33.5508 34.9922 34.957 34.9922 36.7148C34.9922 38.1081 34.7578 39.6576 34.2891 41.3633C34.2891 41.4284 34.3346 41.4935 34.4258 41.5586C34.5169 41.6107 34.6146 41.6367 34.7188 41.6367C34.8359 41.6367 34.9141 41.5911 34.9531 41.5L35.2266 40.4062C35.6953 38.4792 36.1576 36.8776 36.6133 35.6016C37.082 34.3255 37.7786 33.2253 38.7031 32.3008C39.6406 31.3633 40.8581 30.8945 42.3555 30.8945C44.3216 30.8945 45.7344 31.526 46.5938 32.7891C47.4661 34.0521 47.9023 35.6406 47.9023 37.5547C47.9023 38.9089 47.7721 40.2695 47.5117 41.6367C47.2643 43.0039 46.9974 44.1497 46.7109 45.0742C46.4375 45.9987 46.099 47.0664 45.6953 48.2773L45.7344 48.3164L48.625 47.1055C49.6406 47.9779 50.2331 49.1367 50.4023 50.582C50.4023 50.6732 50.1094 51.0508 49.5234 51.7148C48.9375 52.3659 48.1628 52.9779 47.1992 53.5508C46.2487 54.1107 45.1549 54.3906 43.918 54.3906C42.681 54.3906 41.6719 54.0586 40.8906 53.3945C40.1094 52.7305 39.7188 51.5977 39.7188 49.9961C39.7188 48.2122 39.7513 46.3828 39.8164 44.5078C39.8945 42.6198 40.0052 40.9271 40.1484 39.4297C39.9271 39.2474 39.6211 39.1497 39.2305 39.1367C38.8398 39.5143 38.3516 40.3411 37.7656 41.6172C37.1797 42.8802 36.6393 44.2344 36.1445 45.6797C35.6497 47.112 35.3372 48.2318 35.207 49.0391C35.3893 50.3151 35.6693 51.5781 36.0469 52.8281C35.8125 53.2708 35.3307 53.6419 34.6016 53.9414C33.8724 54.2409 32.974 54.3906 31.9062 54.3906C30.9427 54.3906 30.1875 54.3125 29.6406 54.1562C29.0938 54 28.7161 53.8372 28.5078 53.668C28.3125 53.4987 28.2148 53.388 28.2148 53.3359C28.2018 53.2188 28.1693 52.9128 28.1172 52.418C28.0651 51.9102 28.013 51.207 27.9609 50.3086C27.9089 49.3971 27.8828 48.362 27.8828 47.2031C27.8828 46.0964 27.9674 44.7096 28.1367 43.043C28.1497 42.8346 28.1888 42.3398 28.2539 41.5586C28.319 40.7773 28.3516 40.0677 28.3516 39.4297C28.1302 39.2474 27.8242 39.1497 27.4336 39.1367C27.2122 39.306 26.5938 40.3867 25.5781 42.3789C24.5625 44.3711 23.8854 45.7773 23.5469 46.5977C23.5208 46.7799 23.5078 46.9557 23.5078 47.125C23.5078 47.776 23.6055 48.6549 23.8008 49.7617C23.9961 50.8555 24.237 51.8776 24.5234 52.8281C24.2891 53.2708 23.8073 53.6419 23.0781 53.9414C22.349 54.2409 21.4505 54.3906 20.3828 54.3906C19.4193 54.3906 18.6445 54.3125 18.0586 54.1562C17.4857 54 17.082 53.8372 16.8477 53.668C16.6133 53.4857 16.4961 53.375 16.4961 53.3359C16.4831 53.2188 16.4505 52.9128 16.3984 52.418C16.3464 51.9102 16.2943 51.207 16.2422 50.3086C16.1901 49.3971 16.1641 48.362 16.1641 47.2031ZM55.3117 25.9727C55.3117 24.8268 55.6828 23.8958 56.425 23.1797C57.1802 22.4635 58.3781 22.1055 60.0187 22.1055C61.6594 22.1055 62.8508 22.4635 63.593 23.1797C64.3482 23.8958 64.7258 24.8268 64.7258 25.9727C64.7258 26.6237 64.4979 27.2227 64.0422 27.7695C63.5995 28.3164 63.0135 28.7526 62.2844 29.0781C61.5552 29.3906 60.8 29.5469 60.0187 29.5469C59.1724 29.5469 58.3846 29.3646 57.6555 29C56.9393 28.6224 56.3664 28.1536 55.9367 27.5938C55.5201 27.0339 55.3117 26.4935 55.3117 25.9727ZM57.6164 56.832C57.6424 56.6628 57.6555 56.3698 57.6555 55.9531C57.6555 55.3542 57.5969 54.0065 57.4797 51.9102C57.4016 50.4648 57.3299 48.375 57.2648 45.6406C57.1997 42.8932 57.1672 41.1484 57.1672 40.4062C57.1672 39.4427 57.1867 38.4922 57.2258 37.5547L54.3547 37.1445C54.0812 36.1289 53.938 34.8138 53.925 33.1992C54.1854 32.8737 54.6542 32.5286 55.3312 32.1641C56.0083 31.7865 56.7831 31.474 57.6555 31.2266C58.5409 30.9792 59.4068 30.8555 60.2531 30.8555C61.412 30.8555 62.3365 31.0443 63.0266 31.4219C63.7167 31.7865 64.2115 32.3398 64.5109 33.082C64.8104 33.8112 64.9602 34.7552 64.9602 35.9141C64.9602 37.0469 64.9081 38.3164 64.8039 39.7227C64.7128 41.1289 64.6607 41.9688 64.6477 42.2422C64.4263 45.1458 64.2831 47.4896 64.218 49.2734C64.1008 52.1901 63.951 54.4818 63.7687 56.1484C63.5995 57.8281 63.2805 59.0521 62.8117 59.8203C62.2518 60.7448 61.5487 61.4089 60.7023 61.8125C59.856 62.2292 58.8013 62.4375 57.5383 62.4375C56.2753 62.4375 55.1424 62.2161 54.1398 61.7734C53.1372 61.3307 52.4341 60.6732 52.0305 59.8008C52.0435 58.9805 52.1672 58.1797 52.4016 57.3984C52.6359 56.6172 53.007 55.9727 53.5148 55.4648L57.6164 56.832Z" fill="#121619"/>
<path d="M16.2422 42.3984L16.7416 42.4225L16.7416 42.4222L16.2422 42.3984ZM16.6523 37.5938L17.1496 37.6459L17.2005 37.161L16.717 37.0979L16.6523 37.5938ZM14.4062 37.3008L13.9305 37.4545L14.0278 37.7556L14.3416 37.7966L14.4062 37.3008ZM13.8594 35.0352L13.3627 35.0936L13.364 35.1031L13.8594 35.0352ZM13.7422 32.457L13.4129 32.0807L13.2422 32.2301V32.457H13.7422ZM14.7773 31.8125L15.0058 32.2573L15.0102 32.255L14.7773 31.8125ZM16.5156 31.1484L16.648 31.6306L16.6542 31.6288L16.5156 31.1484ZM21.9062 31.8711L21.5458 32.2177L21.5493 32.2212L21.9062 31.8711ZM22.5703 37.9844L23.0627 38.0711L23.0631 38.069L22.5703 37.9844ZM22.1602 41.4414L21.8695 41.8483L21.8901 41.863L21.9121 41.8755L22.1602 41.4414ZM22.6875 41.3828L23.1726 41.5041L22.2279 41.1859L22.6875 41.3828ZM23.1367 39.4102L23.6242 39.5216L23.626 39.513L23.1367 39.4102ZM24.2891 35.0156L23.818 34.8478L23.8164 34.8526L24.2891 35.0156ZM33.7617 32.4961L33.3652 32.8007L33.367 32.8031L33.7617 32.4961ZM34.2891 41.3633L33.8069 41.2308L33.7891 41.2958V41.3633H34.2891ZM34.4258 41.5586L34.1352 41.9655L34.1557 41.9802L34.1777 41.9927L34.4258 41.5586ZM34.9531 41.5L35.4127 41.697L35.4285 41.6601L35.4382 41.6213L34.9531 41.5ZM35.2266 40.4062L35.7116 40.5275L35.7124 40.5244L35.2266 40.4062ZM36.6133 35.6016L36.1439 35.4291L36.1424 35.4334L36.6133 35.6016ZM46.5938 32.7891L46.1804 33.0703L46.1823 33.0732L46.5938 32.7891ZM47.5117 41.6367L47.0205 41.5432L47.0197 41.5477L47.5117 41.6367ZM46.7109 45.0742L46.2333 44.9262L46.2315 44.9324L46.7109 45.0742ZM45.6953 48.2773L45.221 48.1192L45.1233 48.4124L45.3418 48.6309L45.6953 48.2773ZM45.7344 48.3164L45.3808 48.67L45.6181 48.9072L45.9276 48.7776L45.7344 48.3164ZM48.625 47.1055L48.9508 46.7262L48.7166 46.525L48.4318 46.6443L48.625 47.1055ZM50.4023 50.582H50.9023V50.5529L50.8989 50.5239L50.4023 50.582ZM49.5234 51.7148L49.8951 52.0493L49.8984 52.0457L49.5234 51.7148ZM47.1992 53.5508L47.453 53.9816L47.4548 53.9805L47.1992 53.5508ZM39.8164 44.5078L39.3168 44.4871L39.3167 44.4905L39.8164 44.5078ZM40.1484 39.4297L40.6462 39.4773L40.6715 39.2127L40.4663 39.0437L40.1484 39.4297ZM39.2305 39.1367L39.2471 38.637L39.0353 38.6299L38.883 38.7772L39.2305 39.1367ZM37.7656 41.6172L38.2192 41.8276L38.22 41.8258L37.7656 41.6172ZM36.1445 45.6797L36.6171 45.8429L36.6176 45.8416L36.1445 45.6797ZM35.207 49.0391L34.7134 48.9594L34.7013 49.0345L34.7121 49.1098L35.207 49.0391ZM36.0469 52.8281L36.4888 53.0621L36.585 52.8804L36.5255 52.6835L36.0469 52.8281ZM28.5078 53.668L28.1803 54.0458L28.1864 54.051L28.1925 54.056L28.5078 53.668ZM28.2148 53.3359H28.7148V53.3082L28.7118 53.2807L28.2148 53.3359ZM28.1172 52.418L27.6198 52.469L27.6199 52.4703L28.1172 52.418ZM27.9609 50.3086L27.4618 50.3371L27.4618 50.3375L27.9609 50.3086ZM28.1367 43.043L28.6342 43.0935L28.6351 43.0838L28.6357 43.0742L28.1367 43.043ZM28.3516 39.4297H28.8516V39.1937L28.6694 39.0437L28.3516 39.4297ZM27.4336 39.1367L27.4503 38.637L27.2717 38.631L27.1299 38.7395L27.4336 39.1367ZM23.5469 46.5977L23.0847 46.4069L23.0608 46.4649L23.0519 46.5269L23.5469 46.5977ZM23.8008 49.7617L23.3084 49.8486L23.3086 49.8496L23.8008 49.7617ZM24.5234 52.8281L24.9653 53.0621L25.0614 52.8805L25.0022 52.6838L24.5234 52.8281ZM23.0781 53.9414L22.8882 53.4789L23.0781 53.9414ZM18.0586 54.1562L17.927 54.6386L17.9298 54.6394L18.0586 54.1562ZM16.8477 53.668L16.5407 54.0626L16.5477 54.0681L16.5549 54.0733L16.8477 53.668ZM16.4961 53.3359H16.9961V53.3082L16.993 53.2807L16.4961 53.3359ZM16.3984 52.418L15.901 52.469L15.9012 52.4703L16.3984 52.418ZM16.2422 50.3086L15.743 50.3371L15.743 50.3375L16.2422 50.3086ZM16.1641 47.2031H16.6641C16.6641 45.0827 16.6901 43.4909 16.7416 42.4225L16.2422 42.3984L15.7428 42.3744C15.6901 43.4675 15.6641 45.0788 15.6641 47.2031H16.1641ZM16.2422 42.3984L16.7416 42.4222C16.793 41.343 16.9285 39.7529 17.1496 37.6459L16.6523 37.5938L16.1551 37.5416C15.9335 39.6534 15.7955 41.2663 15.7428 42.3747L16.2422 42.3984ZM16.6523 37.5938L16.717 37.0979L14.4709 36.805L14.4062 37.3008L14.3416 37.7966L16.5877 38.0896L16.6523 37.5938ZM14.4062 37.3008L14.882 37.1471C14.6149 36.3202 14.4408 35.5945 14.3547 34.9672L13.8594 35.0352L13.364 35.1031C13.4602 35.8039 13.6507 36.5886 13.9305 37.4545L14.4062 37.3008ZM13.8594 35.0352L14.356 34.9767C14.281 34.3398 14.2422 33.5019 14.2422 32.457H13.7422H13.2422C13.2422 33.5215 13.2815 34.4024 13.3628 35.0936L13.8594 35.0352ZM13.7422 32.457L14.0714 32.8333C14.2323 32.6926 14.5327 32.5002 15.0057 32.2573L14.7773 31.8125L14.5489 31.3677C14.0584 31.6196 13.6688 31.8569 13.4129 32.0807L13.7422 32.457ZM14.7773 31.8125L15.0102 32.255C15.4667 32.0147 16.0111 31.8054 16.648 31.6306L16.5156 31.1484L16.3833 30.6663C15.692 30.856 15.0776 31.0895 14.5445 31.37L14.7773 31.8125ZM16.5156 31.1484L16.6542 31.6288C17.2872 31.4463 17.9242 31.3555 18.5664 31.3555V30.8555V30.3555C17.8284 30.3555 17.0982 30.46 16.377 30.668L16.5156 31.1484ZM18.5664 30.8555V31.3555C20.0933 31.3555 21.0361 31.6875 21.5458 32.2176L21.9062 31.8711L22.2667 31.5245C21.4744 30.7005 20.1906 30.3555 18.5664 30.3555V30.8555ZM21.9062 31.8711L21.5493 32.2212C22.0886 32.7711 22.4023 33.6385 22.4023 34.918H22.9023H23.4023C23.4023 33.4891 23.052 32.3252 22.2632 31.521L21.9062 31.8711ZM22.9023 34.918H22.4023C22.4023 35.6316 22.297 36.6216 22.0775 37.8998L22.5703 37.9844L23.0631 38.069C23.2863 36.7691 23.4023 35.7148 23.4023 34.918H22.9023ZM22.5703 37.9844L22.0779 37.8977C21.8955 38.9332 21.7585 39.7242 21.667 40.2699C21.6213 40.5424 21.5867 40.7556 21.5634 40.908C21.5517 40.984 21.5426 41.0473 21.5362 41.0964C21.5316 41.1318 21.5234 41.1943 21.5234 41.2461H22.0234H22.5234C22.5234 41.2718 22.521 41.2776 22.5278 41.2255C22.5328 41.1871 22.5407 41.1322 22.5519 41.0593C22.5741 40.9139 22.6078 40.7063 22.6533 40.4352C22.7441 39.8937 22.8805 39.1059 23.0627 38.0711L22.5703 37.9844ZM22.0234 41.2461H21.5234C21.5234 41.5606 21.7402 41.7559 21.8695 41.8483L22.1602 41.4414L22.4508 41.0345C22.434 41.0226 22.4471 41.0283 22.4672 41.057C22.4901 41.0897 22.5234 41.1553 22.5234 41.2461H22.0234ZM22.1602 41.4414L21.9121 41.8755C22.0782 41.9704 22.2612 42.0195 22.4531 42.0195V41.5195V41.0195C22.4367 41.0195 22.4244 41.0166 22.4082 41.0073L22.1602 41.4414ZM22.4531 41.5195V42.0195C22.5747 42.0195 22.7166 41.996 22.8515 41.9172C22.9922 41.8352 23.0896 41.7139 23.1471 41.5798L22.6875 41.3828L22.2279 41.1859C22.2463 41.1429 22.2851 41.0899 22.3477 41.0535C22.4045 41.0203 22.4488 41.0195 22.4531 41.0195V41.5195ZM22.6875 41.3828L22.2024 41.2615C22.2025 41.2615 22.203 41.2594 22.2037 41.2565C22.2041 41.2552 22.205 41.2519 22.2062 41.2476C22.2062 41.2475 22.2106 41.2318 22.2176 41.2128C22.2199 41.2066 22.2261 41.1911 22.2301 41.1819C22.2373 41.1666 22.2621 41.1217 22.2811 41.0933C22.3436 41.022 22.6841 40.8857 22.9507 40.961C23.0816 41.079 23.1769 41.2871 23.1847 41.3404C23.1862 41.3637 23.1865 41.3998 23.186 41.4126C23.1855 41.4206 23.1844 41.4341 23.1838 41.4396C23.1826 41.4503 23.1814 41.4586 23.1808 41.462C23.1797 41.4696 23.1786 41.4754 23.1783 41.477C23.1778 41.4795 23.1774 41.4814 23.1773 41.4823C23.1765 41.4859 23.1765 41.486 23.1785 41.4769C23.1817 41.4625 23.1874 41.4368 23.196 41.3989C23.213 41.3237 23.2401 41.2041 23.2776 41.0397C23.3524 40.7112 23.4679 40.2051 23.6241 39.5216L23.1367 39.4102L22.6493 39.2987C22.493 39.9824 22.3774 40.4887 22.3025 40.8177C22.2651 40.9821 22.2377 41.1025 22.2205 41.1787C22.212 41.2165 22.2057 41.2443 22.202 41.2613C22.2006 41.2678 22.1983 41.2781 22.1967 41.2862C22.1967 41.2863 22.1945 41.2966 22.1926 41.3089C22.1921 41.3124 22.1908 41.3208 22.1896 41.3316C22.1891 41.3371 22.1879 41.3507 22.1874 41.3587C22.1869 41.3715 22.1872 41.4076 22.1888 41.4309C22.1965 41.4842 22.2919 41.6924 22.4228 41.8103C22.6894 41.8857 23.0299 41.7493 23.0923 41.6781C23.1114 41.6496 23.1362 41.6048 23.1434 41.5894C23.1474 41.5802 23.1536 41.5647 23.1559 41.5585C23.163 41.5393 23.1674 41.5234 23.1675 41.523C23.1688 41.5184 23.1698 41.5148 23.1703 41.513C23.1713 41.5091 23.1721 41.5058 23.1726 41.5041L22.6875 41.3828ZM23.1367 39.4102L23.626 39.513C24.0013 37.727 24.3805 36.2843 24.7617 35.1786L24.2891 35.0156L23.8164 34.8526C23.4164 36.0126 23.0273 37.4996 22.6474 39.3073L23.1367 39.4102ZM24.2891 35.0156L24.7601 35.1835C25.1369 34.1257 25.7303 33.2243 26.5427 32.4725L26.2031 32.1055L25.8635 31.7385C24.9312 32.6013 24.2485 33.6399 23.8181 34.8478L24.2891 35.0156ZM26.2031 32.1055L26.5427 32.4725C27.3004 31.7713 28.3523 31.3945 29.7578 31.3945V30.8945V30.3945C28.1686 30.3945 26.8506 30.8251 25.8635 31.7385L26.2031 32.1055ZM29.7578 30.8945V31.3945C31.5134 31.3945 32.6718 31.8981 33.3652 32.8007L33.7617 32.4961L34.1582 32.1915C33.211 30.9586 31.7002 30.3945 29.7578 30.3945V30.8945ZM33.7617 32.4961L33.367 32.8031C34.1003 33.7458 34.4922 35.0331 34.4922 36.7148H34.9922H35.4922C35.4922 34.881 35.0638 33.3558 34.1564 32.1891L33.7617 32.4961ZM34.9922 36.7148H34.4922C34.4922 38.0532 34.2669 39.5572 33.8069 41.2308L34.2891 41.3633L34.7712 41.4958C35.2488 39.7579 35.4922 38.163 35.4922 36.7148H34.9922ZM34.2891 41.3633H33.7891C33.7891 41.6778 34.0059 41.8731 34.1352 41.9655L34.4258 41.5586L34.7164 41.1517C34.6996 41.1397 34.7127 41.1455 34.7329 41.1742C34.7557 41.2069 34.7891 41.2725 34.7891 41.3633H34.2891ZM34.4258 41.5586L34.1777 41.9927C34.3438 42.0876 34.5269 42.1367 34.7188 42.1367V41.6367V41.1367C34.7023 41.1367 34.6901 41.1337 34.6739 41.1245L34.4258 41.5586ZM34.7188 41.6367V42.1367C34.8403 42.1367 34.9822 42.1132 35.1172 42.0344C35.2578 41.9524 35.3552 41.8311 35.4127 41.697L34.9531 41.5L34.4936 41.303C34.512 41.2601 34.5508 41.2071 34.6133 41.1706C34.6701 41.1375 34.7144 41.1367 34.7188 41.1367V41.6367ZM34.9531 41.5L35.4382 41.6213L35.7116 40.5275L35.2266 40.4062L34.7415 40.285L34.4681 41.3787L34.9531 41.5ZM35.2266 40.4062L35.7124 40.5244C36.1787 38.6073 36.6363 37.0238 37.0842 35.7697L36.6133 35.6016L36.1424 35.4334C35.6788 36.7314 35.2119 38.3511 34.7407 40.2881L35.2266 40.4062ZM36.6133 35.6016L37.0826 35.774C37.5274 34.5632 38.1855 33.5255 39.0567 32.6543L38.7031 32.3008L38.3496 31.9472C37.3718 32.925 36.6367 34.0878 36.1439 35.4292L36.6133 35.6016ZM38.7031 32.3008L39.0567 32.6543C39.888 31.8231 40.972 31.3945 42.3555 31.3945V30.8945V30.3945C40.7442 30.3945 39.3933 30.9035 38.3496 31.9472L38.7031 32.3008ZM42.3555 30.8945V31.3945C44.2092 31.3945 45.4404 31.9829 46.1804 33.0703L46.5938 32.7891L47.0071 32.5078C46.0283 31.0692 44.434 30.3945 42.3555 30.3945V30.8945ZM46.5938 32.7891L46.1823 33.0732C46.9842 34.2341 47.4023 35.7169 47.4023 37.5547H47.9023H48.4023C48.4023 35.5643 47.9481 33.87 47.0052 32.5049L46.5938 32.7891ZM47.9023 37.5547H47.4023C47.4023 38.8766 47.2753 40.206 47.0205 41.5432L47.5117 41.6367L48.0029 41.7303C48.269 40.3331 48.4023 38.9411 48.4023 37.5547H47.9023ZM47.5117 41.6367L47.0197 41.5477C46.7745 42.9027 46.5118 44.0274 46.2333 44.9262L46.7109 45.0742L47.1885 45.2222C47.4829 44.2721 47.7541 43.1051 48.0037 41.7257L47.5117 41.6367ZM46.7109 45.0742L46.2315 44.9324C45.9601 45.85 45.6234 46.9121 45.221 48.1192L45.6953 48.2773L46.1697 48.4355C46.5746 47.2207 46.9149 46.1474 47.1904 45.216L46.7109 45.0742ZM45.6953 48.2773L45.3418 48.6309L45.3808 48.67L45.7344 48.3164L46.0879 47.9629L46.0489 47.9238L45.6953 48.2773ZM45.7344 48.3164L45.9276 48.7776L48.8182 47.5666L48.625 47.1055L48.4318 46.6443L45.5412 47.8552L45.7344 48.3164ZM48.625 47.1055L48.2992 47.4848C49.211 48.2679 49.7497 49.3078 49.9057 50.6402L50.4023 50.582L50.8989 50.5239C50.7165 48.9657 50.0703 47.6878 48.9508 46.7262L48.625 47.1055ZM50.4023 50.582H49.9023C49.9023 50.525 49.9131 50.4827 49.9185 50.4639C49.9246 50.4428 49.9306 50.4289 49.9327 50.4245C49.9364 50.4162 49.9355 50.4198 49.9234 50.4391C49.8999 50.4767 49.8567 50.5379 49.7876 50.6271C49.6508 50.8034 49.4393 51.0545 49.1485 51.384L49.5234 51.7148L49.8984 52.0457C50.1935 51.7112 50.4214 51.4414 50.5777 51.2401C50.655 51.1404 50.7217 51.0486 50.7714 50.9691C50.796 50.9298 50.8225 50.8838 50.8446 50.8348C50.8602 50.8001 50.9023 50.7038 50.9023 50.582H50.4023ZM49.5234 51.7148L49.1518 51.3804C48.6074 51.9852 47.8754 52.567 46.9437 53.121L47.1992 53.5508L47.4548 53.9805C48.4501 53.3887 49.2676 52.7466 49.8951 52.0493L49.5234 51.7148ZM47.1992 53.5508L46.9455 53.12C46.0808 53.6293 45.0768 53.8906 43.918 53.8906V54.3906V54.8906C45.2331 54.8906 46.4166 54.5921 47.453 53.9816L47.1992 53.5508ZM43.918 54.3906V53.8906C42.7741 53.8906 41.8876 53.5857 41.2144 53.0136L40.8906 53.3945L40.5668 53.7755C41.4562 54.5315 42.5879 54.8906 43.918 54.8906V54.3906ZM40.8906 53.3945L41.2144 53.0136C40.5953 52.4873 40.2188 51.5332 40.2188 49.9961H39.7188H39.2188C39.2188 51.6621 39.6235 52.9737 40.5668 53.7755L40.8906 53.3945ZM39.7188 49.9961H40.2188C40.2188 48.2183 40.2512 46.3947 40.3161 44.5252L39.8164 44.5078L39.3167 44.4905C39.2514 46.3709 39.2188 48.2062 39.2188 49.9961H39.7188ZM39.8164 44.5078L40.316 44.5285C40.3938 42.6473 40.504 40.9638 40.6462 39.4773L40.1484 39.4297L39.6507 39.3821C39.5064 40.8904 39.3952 42.5923 39.3168 44.4871L39.8164 44.5078ZM40.1484 39.4297L40.4663 39.0437C40.1336 38.7698 39.7084 38.6524 39.2471 38.637L39.2305 39.1367L39.2138 39.6364C39.5338 39.6471 39.7205 39.725 39.8306 39.8157L40.1484 39.4297ZM39.2305 39.1367L38.883 38.7772C38.4161 39.2285 37.8945 40.1384 37.3112 41.4085L37.7656 41.6172L38.22 41.8258C38.8086 40.5439 39.2635 39.8002 39.578 39.4962L39.2305 39.1367ZM37.7656 41.6172L37.3121 41.4068C36.7181 42.687 36.1714 44.0575 35.6715 45.5177L36.1445 45.6797L36.6176 45.8416C37.1073 44.4112 37.6413 43.0734 38.2192 41.8276L37.7656 41.6172ZM36.1445 45.6797L35.6719 45.5164C35.1742 46.9571 34.8506 48.1092 34.7134 48.9594L35.207 49.0391L35.7007 49.1187C35.8239 48.3544 36.1252 47.2668 36.6171 45.8429L36.1445 45.6797ZM35.207 49.0391L34.7121 49.1098C34.898 50.4111 35.1834 51.6989 35.5682 52.9727L36.0469 52.8281L36.5255 52.6835C36.1551 51.4574 35.8807 50.2191 35.702 48.9684L35.207 49.0391ZM36.0469 52.8281L35.605 52.5942C35.449 52.8888 35.0912 53.1998 34.4116 53.4789L34.6016 53.9414L34.7915 54.4039C35.5702 54.0841 36.176 53.6528 36.4888 53.0621L36.0469 52.8281ZM34.6016 53.9414L34.4116 53.4789C33.76 53.7465 32.9305 53.8906 31.9062 53.8906V54.3906V54.8906C33.0174 54.8906 33.9848 54.7352 34.7915 54.4039L34.6016 53.9414ZM31.9062 54.3906V53.8906C30.9618 53.8906 30.2599 53.8132 29.778 53.6755L29.6406 54.1562L29.5033 54.637C30.1151 54.8118 30.9237 54.8906 31.9062 54.8906V54.3906ZM29.6406 54.1562L29.778 53.6755C29.2395 53.5216 28.9472 53.3808 28.8231 53.2799L28.5078 53.668L28.1925 54.056C28.4851 54.2937 28.948 54.4784 29.5033 54.637L29.6406 54.1562ZM28.5078 53.668L28.8353 53.2901C28.744 53.211 28.6901 53.1579 28.663 53.1272C28.649 53.1113 28.6523 53.1128 28.6619 53.1287C28.667 53.1373 28.6782 53.1571 28.689 53.1864C28.6992 53.2144 28.7148 53.2668 28.7148 53.3359H28.2148H27.7148C27.7148 53.4871 27.7784 53.5998 27.8044 53.6432C27.8384 53.6999 27.8784 53.7494 27.9132 53.7888C27.9837 53.8688 28.0763 53.9557 28.1803 54.0458L28.5078 53.668ZM28.2148 53.3359L28.7118 53.2807C28.699 53.1653 28.6666 52.861 28.6144 52.3656L28.1172 52.418L27.6199 52.4703C27.672 52.9645 27.7047 53.2722 27.7179 53.3912L28.2148 53.3359ZM28.1172 52.418L28.6146 52.367C28.5636 51.87 28.512 51.1754 28.4601 50.2797L27.9609 50.3086L27.4618 50.3375C27.514 51.2387 27.5666 51.9503 27.6198 52.469L28.1172 52.418ZM27.9609 50.3086L28.4601 50.2801C28.4087 49.3802 28.3828 48.3549 28.3828 47.2031H27.8828H27.3828C27.3828 48.3691 27.409 49.414 27.4618 50.3371L27.9609 50.3086ZM27.8828 47.2031H28.3828C28.3828 46.1194 28.4658 44.7509 28.6342 43.0935L28.1367 43.043L27.6393 42.9924C27.4691 44.6683 27.3828 46.0733 27.3828 47.2031H27.8828ZM28.1367 43.043L28.6357 43.0742C28.6484 42.8721 28.6869 42.3831 28.7522 41.6001L28.2539 41.5586L27.7556 41.5171C27.6907 42.2966 27.6511 42.7972 27.6377 43.0118L28.1367 43.043ZM28.2539 41.5586L28.7522 41.6001C28.8182 40.808 28.8516 40.0843 28.8516 39.4297H28.3516H27.8516C27.8516 40.0511 27.8198 40.7466 27.7556 41.5171L28.2539 41.5586ZM28.3516 39.4297L28.6694 39.0437C28.3368 38.7698 27.9115 38.6524 27.4503 38.637L27.4336 39.1367L27.4169 39.6364C27.7369 39.6471 27.9236 39.725 28.0337 39.8157L28.3516 39.4297ZM27.4336 39.1367L27.1299 38.7395C27 38.8388 26.8785 39.0063 26.7781 39.1557C26.6635 39.3262 26.527 39.5511 26.3698 39.8259C26.0545 40.3766 25.6418 41.1532 25.1327 42.1518L25.5781 42.3789L26.0236 42.606C26.5301 41.6124 26.9344 40.8525 27.2377 40.3226C27.3896 40.057 27.5127 39.8554 27.6081 39.7134C27.7177 39.5504 27.7565 39.5192 27.7373 39.5339L27.4336 39.1367ZM25.5781 42.3789L25.1327 42.1518C24.1174 44.1434 23.4318 45.5659 23.0847 46.4069L23.5469 46.5977L24.0091 46.7884C24.3391 45.9888 25.0076 44.5988 26.0236 42.606L25.5781 42.3789ZM23.5469 46.5977L23.0519 46.5269C23.0228 46.7306 23.0078 46.9301 23.0078 47.125H23.5078H24.0078C24.0078 46.9813 24.0189 46.8293 24.0418 46.6684L23.5469 46.5977ZM23.5078 47.125H23.0078C23.0078 47.8187 23.1111 48.7306 23.3084 49.8486L23.8008 49.7617L24.2932 49.6748C24.0998 48.5793 24.0078 47.7334 24.0078 47.125H23.5078ZM23.8008 49.7617L23.3086 49.8496C23.5069 50.9602 23.7521 52.0013 24.0447 52.9724L24.5234 52.8281L25.0022 52.6838C24.7219 51.7539 24.4853 50.7507 24.293 49.6738L23.8008 49.7617ZM24.5234 52.8281L24.0815 52.5942C23.9255 52.8888 23.5678 53.1998 22.8882 53.4789L23.0781 53.9414L23.2681 54.4039C24.0468 54.0841 24.6526 53.6528 24.9653 53.0621L24.5234 52.8281ZM23.0781 53.9414L22.8882 53.4789C22.2365 53.7465 21.4071 53.8906 20.3828 53.8906V54.3906V54.8906C21.494 54.8906 22.4614 54.7352 23.2681 54.4039L23.0781 53.9414ZM20.3828 54.3906V53.8906C19.4405 53.8906 18.7142 53.8136 18.1874 53.6731L18.0586 54.1562L17.9298 54.6394C18.5749 54.8114 19.3981 54.8906 20.3828 54.8906V54.3906ZM18.0586 54.1562L18.1902 53.6739C17.6272 53.5203 17.2977 53.3762 17.1404 53.2626L16.8477 53.668L16.5549 54.0733C16.8664 54.2983 17.3441 54.4797 17.927 54.6386L18.0586 54.1562ZM16.8477 53.668L17.1546 53.2733C17.0415 53.1853 16.9684 53.1236 16.9273 53.0847C16.9055 53.0642 16.9041 53.0607 16.9118 53.0705C16.9156 53.0753 16.9304 53.0944 16.9462 53.1253C16.9545 53.1414 16.9659 53.1661 16.9757 53.1982C16.9853 53.2297 16.9961 53.2772 16.9961 53.3359H16.4961H15.9961C15.9961 53.4557 16.0375 53.5448 16.0569 53.5826C16.0801 53.6277 16.1059 53.6633 16.1243 53.6868C16.1613 53.7341 16.2038 53.777 16.2407 53.8117C16.3167 53.8836 16.4195 53.9684 16.5407 54.0626L16.8477 53.668ZM16.4961 53.3359L16.993 53.2807C16.9802 53.1653 16.9478 52.861 16.8957 52.3656L16.3984 52.418L15.9012 52.4703C15.9532 52.9645 15.9859 53.2722 15.9992 53.3912L16.4961 53.3359ZM16.3984 52.418L16.8958 52.367C16.8449 51.87 16.7933 51.1754 16.7413 50.2797L16.2422 50.3086L15.743 50.3375C15.7953 51.2387 15.8479 51.9503 15.901 52.469L16.3984 52.418ZM16.2422 50.3086L16.7414 50.2801C16.69 49.3802 16.6641 48.3549 16.6641 47.2031H16.1641H15.6641C15.6641 48.3691 15.6903 49.414 15.743 50.3371L16.2422 50.3086ZM56.425 23.1797L56.0809 22.8169L56.0778 22.8199L56.425 23.1797ZM63.593 23.1797L63.2458 23.5395L63.2489 23.5425L63.593 23.1797ZM64.0422 27.7695L63.658 27.4494L63.6536 27.4549L64.0422 27.7695ZM62.2844 29.0781L62.4814 29.5377L62.4882 29.5347L62.2844 29.0781ZM57.6555 29L57.4222 29.4424L57.4319 29.4472L57.6555 29ZM55.9367 27.5938L55.5356 27.8923L55.5401 27.8982L55.9367 27.5938ZM57.6164 56.832L57.4583 57.3064L58.0205 57.4938L58.1106 56.9081L57.6164 56.832ZM57.4797 51.9102L56.9804 51.9371L56.9805 51.9381L57.4797 51.9102ZM57.2648 45.6406L56.765 45.6525L56.765 45.6525L57.2648 45.6406ZM57.2258 37.5547L57.7253 37.5755L57.7442 37.1237L57.2965 37.0597L57.2258 37.5547ZM54.3547 37.1445L53.8719 37.2745L53.9576 37.5929L54.284 37.6395L54.3547 37.1445ZM53.925 33.1992L53.5346 32.8869L53.4236 33.0256L53.425 33.2033L53.925 33.1992ZM55.3312 32.1641L55.5683 32.6043L55.5748 32.6007L55.3312 32.1641ZM57.6555 31.2266L57.5209 30.745L57.5191 30.7455L57.6555 31.2266ZM63.0266 31.4219L62.7865 31.8606L62.793 31.864L63.0266 31.4219ZM64.5109 33.082L64.0473 33.2691L64.0484 33.272L64.5109 33.082ZM64.8039 39.7227L64.3053 39.6857L64.305 39.6903L64.8039 39.7227ZM64.6477 42.2422L65.1462 42.2802L65.1468 42.2731L65.1471 42.266L64.6477 42.2422ZM64.218 49.2734L64.7176 49.2935L64.7176 49.2917L64.218 49.2734ZM63.7687 56.1484L63.2717 56.0941L63.2713 56.0983L63.7687 56.1484ZM62.8117 59.8203L62.3849 59.5599L62.384 59.5613L62.8117 59.8203ZM60.7023 61.8125L60.4871 61.3612L60.4815 61.3639L60.7023 61.8125ZM52.0305 59.8008L51.5305 59.7928L51.5287 59.9071L51.5767 60.0107L52.0305 59.8008ZM53.5148 55.4648L53.673 54.9905L53.3798 54.8928L53.1613 55.1113L53.5148 55.4648ZM55.3117 25.9727H55.8117C55.8117 24.9459 56.139 24.1505 56.7722 23.5395L56.425 23.1797L56.0778 22.8199C55.2266 23.6412 54.8117 24.7077 54.8117 25.9727H55.3117ZM56.425 23.1797L56.769 23.5425C57.3903 22.9534 58.4353 22.6055 60.0187 22.6055V22.1055V21.6055C58.321 21.6055 56.9702 21.9737 56.081 22.8169L56.425 23.1797ZM60.0187 22.1055V22.6055C61.6033 22.6055 62.6388 22.9538 63.2458 23.5395L63.593 23.1797L63.9402 22.8199C63.0627 21.9732 61.7155 21.6055 60.0187 21.6055V22.1055ZM63.593 23.1797L63.2489 23.5425C63.894 24.1542 64.2258 24.9487 64.2258 25.9727H64.7258H65.2258C65.2258 24.705 64.8024 23.6375 63.937 22.8169L63.593 23.1797ZM64.7258 25.9727H64.2258C64.2258 26.4955 64.0464 26.9834 63.6581 27.4494L64.0422 27.7695L64.4263 28.0896C64.9494 27.4619 65.2258 26.7519 65.2258 25.9727H64.7258ZM64.0422 27.7695L63.6536 27.4549C63.2667 27.9328 62.7476 28.3238 62.0805 28.6216L62.2844 29.0781L62.4882 29.5347C63.2795 29.1814 63.9322 28.7 64.4308 28.0841L64.0422 27.7695ZM62.2844 29.0781L62.0874 28.6186C61.4195 28.9048 60.7312 29.0469 60.0187 29.0469V29.5469V30.0469C60.8688 30.0469 61.6909 29.8764 62.4813 29.5377L62.2844 29.0781ZM60.0187 29.5469V29.0469C59.247 29.0469 58.5361 28.8813 57.8791 28.5528L57.6555 29L57.4319 29.4472C58.2331 29.8479 59.0978 30.0469 60.0187 30.0469V29.5469ZM57.6555 29L57.8887 28.5577C57.227 28.2088 56.7131 27.7842 56.3334 27.2893L55.9367 27.5938L55.5401 27.8982C56.0197 28.5231 56.6517 29.036 57.4223 29.4423L57.6555 29ZM55.9367 27.5938L56.3378 27.2952C55.9638 26.7926 55.8117 26.3546 55.8117 25.9727H55.3117H54.8117C54.8117 26.6323 55.0763 27.2751 55.5356 27.8923L55.9367 27.5938ZM57.6164 56.832L58.1106 56.9081C58.1431 56.6969 58.1555 56.3695 58.1555 55.9531H57.6555H57.1555C57.1555 56.3701 57.1418 56.6286 57.1222 56.756L57.6164 56.832ZM57.6555 55.9531H58.1555C58.1555 55.3374 58.0959 53.9747 57.9789 51.8822L57.4797 51.9102L56.9805 51.9381C57.0979 54.0383 57.1555 55.371 57.1555 55.9531H57.6555ZM57.4797 51.9102L57.979 51.8832C57.9012 50.4455 57.8298 48.3616 57.7647 45.6287L57.2648 45.6406L56.765 45.6525C56.8301 48.3884 56.9019 50.4842 56.9804 51.9371L57.4797 51.9102ZM57.2648 45.6406L57.7647 45.6288C57.6996 42.8795 57.6672 41.1413 57.6672 40.4062H57.1672H56.6672C56.6672 41.1556 56.6999 42.907 56.765 45.6525L57.2648 45.6406ZM57.1672 40.4062H57.6672C57.6672 39.4495 57.6866 38.5059 57.7253 37.5755L57.2258 37.5547L56.7262 37.5339C56.6869 38.4785 56.6672 39.436 56.6672 40.4062H57.1672ZM57.2258 37.5547L57.2965 37.0597L54.4254 36.6496L54.3547 37.1445L54.284 37.6395L57.1551 38.0497L57.2258 37.5547ZM54.3547 37.1445L54.8375 37.0145C54.5793 36.0557 54.4378 34.7873 54.425 33.1952L53.925 33.1992L53.425 33.2033C53.4382 34.8403 53.5832 36.2021 53.8719 37.2745L54.3547 37.1445ZM53.925 33.1992L54.3154 33.5116C54.512 33.2659 54.9089 32.9594 55.5683 32.6043L55.3312 32.1641L55.0942 31.7238C54.3995 32.0979 53.8589 32.4815 53.5346 32.8869L53.925 33.1992ZM55.3312 32.1641L55.5748 32.6007C56.2129 32.2449 56.9507 31.9461 57.7919 31.7076L57.6555 31.2266L57.5191 30.7455C56.6155 31.0018 55.8038 31.328 55.0877 31.7274L55.3312 32.1641ZM57.6555 31.2266L57.79 31.7081C58.6354 31.4719 59.456 31.3555 60.2531 31.3555V30.8555V30.3555C59.3576 30.3555 58.4464 30.4864 57.5209 30.745L57.6555 31.2266ZM60.2531 30.8555V31.3555C61.3649 31.3555 62.1967 31.5378 62.7866 31.8605L63.0266 31.4219L63.2666 30.9832C62.4762 30.5508 61.459 30.3555 60.2531 30.3555V30.8555ZM63.0266 31.4219L62.793 31.864C63.3758 32.1719 63.7907 32.6334 64.0473 33.2691L64.5109 33.082L64.9746 32.8949C64.6322 32.0463 64.0575 31.401 63.2601 30.9798L63.0266 31.4219ZM64.5109 33.082L64.0484 33.272C64.3144 33.9195 64.4602 34.7924 64.4602 35.9141H64.9602H65.4602C65.4602 34.718 65.3064 33.7029 64.9734 32.8921L64.5109 33.082ZM64.9602 35.9141H64.4602C64.4602 37.032 64.4087 38.2889 64.3053 39.6857L64.8039 39.7227L65.3025 39.7596C65.4074 38.3439 65.4602 37.0617 65.4602 35.9141H64.9602ZM64.8039 39.7227L64.305 39.6903C64.214 41.0943 64.1615 41.9396 64.1482 42.2184L64.6477 42.2422L65.1471 42.266C65.1599 41.9979 65.2116 41.1635 65.3029 39.755L64.8039 39.7227ZM64.6477 42.2422L64.1491 42.2042C63.9275 45.1109 63.7837 47.462 63.7183 49.2552L64.218 49.2734L64.7176 49.2917C64.7824 47.5172 64.9251 45.1808 65.1462 42.2802L64.6477 42.2422ZM64.218 49.2734L63.7184 49.2534C63.6014 52.1656 63.4522 54.4441 63.2717 56.0941L63.7687 56.1484L64.2658 56.2028C64.4499 54.5194 64.6002 52.2146 64.7176 49.2935L64.218 49.2734ZM63.7687 56.1484L63.2713 56.0983C63.104 57.7577 62.7938 58.8898 62.3849 59.5599L62.8117 59.8203L63.2385 60.0807C63.7672 59.2144 64.0949 57.8986 64.2662 56.1986L63.7687 56.1484ZM62.8117 59.8203L62.384 59.5613C61.8668 60.4154 61.2326 61.0057 60.4871 61.3612L60.7023 61.8125L60.9176 62.2638C61.8648 61.812 62.6369 61.0742 63.2394 60.0793L62.8117 59.8203ZM60.7023 61.8125L60.4815 61.3639C59.7231 61.7373 58.7495 61.9375 57.5383 61.9375V62.4375V62.9375C58.8531 62.9375 59.9889 62.721 60.9232 62.2611L60.7023 61.8125ZM57.5383 62.4375V61.9375C56.3343 61.9375 55.2718 61.7267 54.3418 61.316L54.1398 61.7734L53.9379 62.2308C55.0131 62.7056 56.2162 62.9375 57.5383 62.9375V62.4375ZM54.1398 61.7734L54.3418 61.316C53.4338 60.9151 52.8297 60.3374 52.4842 59.5908L52.0305 59.8008L51.5767 60.0107C52.0385 61.0089 52.8407 61.7464 53.9379 62.2308L54.1398 61.7734ZM52.0305 59.8008L52.5304 59.8087C52.5427 59.0341 52.6594 58.279 52.8805 57.5421L52.4016 57.3984L51.9226 57.2548C51.675 58.0803 51.5443 58.9268 51.5305 59.7928L52.0305 59.8008ZM52.4016 57.3984L52.8805 57.5421C53.0943 56.8292 53.4266 56.2602 53.8684 55.8184L53.5148 55.4648L53.1613 55.1113C52.5874 55.6852 52.1775 56.4051 51.9226 57.2548L52.4016 57.3984ZM53.5148 55.4648L53.3567 55.9392L57.4583 57.3064L57.6164 56.832L57.7745 56.3577L53.673 54.9905L53.5148 55.4648Z" fill="#651C29" mask="url(#path-2-outside-1_42_22)"/>
</svg>
