<svg width="80" height="80" viewBox="0 0 80 80" fill="none" xmlns="http://www.w3.org/2000/svg">
<circle cx="40" cy="40" r="40" fill="#EE6C4D"/>
<path d="M43.36 56.64C42.6133 56.64 41.9867 56.32 41.48 55.68C40.9733 55.0667 40.6 54.3067 40.36 53.4C40.12 52.4933 40 51.6267 40 50.8C40 49.2 40.2267 47.4267 40.68 45.48C41.1333 43.5333 41.6933 41.5467 42.36 39.52C43.0533 37.4933 43.76 35.5467 44.48 33.68C45.2267 31.7867 45.8933 30.08 46.48 28.56C47.0667 27.04 47.48 25.8267 47.72 24.92C47.7733 24.68 47.8133 24.4667 47.84 24.28C47.8667 24.0667 47.88 23.8933 47.88 23.76C47.88 23.28 47.7333 23.04 47.44 23.04C47.0133 23.04 46.3733 23.48 45.52 24.36C44.6667 25.2133 43.7067 26.3867 42.64 27.88C41.6 29.3467 40.56 31.0133 39.52 32.88C38.48 34.7467 37.5467 36.68 36.72 38.68C35.92 40.6533 35.36 42.5867 35.04 44.48C34.9333 45.1733 34.7467 45.6933 34.48 46.04C34.24 46.3867 34 46.56 33.76 46.56C33.5467 46.56 33.36 46.4267 33.2 46.16C33.04 45.8933 32.96 45.5067 32.96 45C32.9333 42.8667 32.8667 40.7333 32.76 38.6C32.6533 36.44 32.4133 34.3733 32.04 32.4C31.48 29.36 30.84 27.2 30.12 25.92C29.4267 24.64 28.7067 24 27.96 24C27.2667 24 26.5867 24.4267 25.92 25.28C25.28 26.1067 24.6667 27.2133 24.08 28.6C23.4933 29.96 22.9733 31.4533 22.52 33.08C22.0667 34.7067 21.7067 36.32 21.44 37.92C21.2 39.52 21.08 40.9467 21.08 42.2C21.08 42.4933 21.08 42.7867 21.08 43.08C21.1067 43.3467 21.1333 43.6 21.16 43.84C21.1867 43.9733 21.2 44.12 21.2 44.28C21.2 44.4133 21.2 44.5467 21.2 44.68C21.2 45.2933 21.12 45.84 20.96 46.32C20.8 46.8 20.6133 47.04 20.4 47.04C20.1867 47.04 19.9867 46.8 19.8 46.32C19.5867 45.84 19.4133 45.24 19.28 44.52C19.1467 43.7733 19.04 43.1467 18.96 42.64C18.9067 42.2667 18.7867 41.7067 18.6 40.96C18.44 40.2133 18.24 39.4 18 38.52C17.76 37.6133 17.48 36.7333 17.16 35.88C16.8667 35 16.5467 34.2533 16.2 33.64C15.8533 33 15.4933 32.5867 15.12 32.4C15.0667 32.3467 15.04 32.2933 15.04 32.24C15.04 32.1067 15.1733 32.0267 15.44 32C15.7333 31.9733 15.9333 31.9867 16.04 32.04C16.6 32.2 17.0933 32.6 17.52 33.24C17.9733 33.8533 18.36 34.5867 18.68 35.44C19.0267 36.2667 19.32 37.0933 19.56 37.92C19.8 38.72 20 39.3867 20.16 39.92C20.4533 38.08 20.8 36.2667 21.2 34.48C21.6267 32.6667 22.1867 30.8933 22.88 29.16C23.8667 26.76 24.84 25.0533 25.8 24.04C26.76 23 27.6667 22.48 28.52 22.48C29.4267 22.48 30.24 22.9467 30.96 23.88C31.7067 24.7867 32.3333 26 32.84 27.52C33.3733 29.0133 33.7333 30.64 33.92 32.4C34.0267 33.3067 34.0933 34.2933 34.12 35.36C34.1467 36.4 34.16 37.4267 34.16 38.44V41.56C34.16 42.0133 34.16 42.4267 34.16 42.8C34.16 43.1733 34.1733 43.48 34.2 43.72C34.3867 43.08 34.6933 42.1867 35.12 41.04C35.5467 39.8667 36.0667 38.56 36.68 37.12C37.2933 35.6533 37.9867 34.1467 38.76 32.6C39.5333 31.0533 40.36 29.5733 41.24 28.16C42.1467 26.72 43.08 25.4667 44.04 24.4C45.0267 23.3067 46.0133 22.5067 47 22C47.5867 21.7067 48.1333 21.56 48.64 21.56C49.2267 21.56 49.72 21.7333 50.12 22.08C50.52 22.4 50.72 22.88 50.72 23.52C50.72 24.48 50.52 25.44 50.12 26.4C49.72 27.3333 49.24 28.2533 48.68 29.16C48.12 30.0667 47.6 30.9467 47.12 31.8C46.2667 33.3467 45.4133 35.1333 44.56 37.16C43.7067 39.1867 42.9867 41.28 42.4 43.44C41.84 45.6 41.56 47.68 41.56 49.68C41.56 50.32 41.5867 50.9467 41.64 51.56C41.72 52.1733 41.84 52.76 42 53.32C42.24 54.1733 42.5333 54.76 42.88 55.08C43.2533 55.4267 43.6267 55.6 44 55.6C44.4 55.6 44.7733 55.48 45.12 55.24C45.4667 55.0267 45.7467 54.7867 45.96 54.52C46.1733 54.28 46.2667 54.1333 46.24 54.08C46.48 54 46.5733 54.0667 46.52 54.28C46.4667 54.52 46.36 54.76 46.2 55C46.04 55.2667 45.9333 55.4267 45.88 55.48C44.9467 56.2533 44.1067 56.64 43.36 56.64ZM59.5475 36.08C59.3608 36.08 59.2008 35.9867 59.0675 35.8C58.9608 35.5867 58.9075 35.36 58.9075 35.12C58.9075 34.72 59.0275 34.3333 59.2675 33.96C59.5342 33.56 59.8275 33.3467 60.1475 33.32H60.2675C60.5875 33.32 60.8008 33.3867 60.9075 33.52C61.0408 33.6533 61.1075 33.8267 61.1075 34.04C61.1075 34.44 60.9208 34.88 60.5475 35.36C60.2008 35.84 59.8675 36.08 59.5475 36.08ZM52.8675 63.6C51.8808 63.6 51.0542 63.3467 50.3875 62.84C49.6942 62.3333 49.3475 61.6267 49.3475 60.72C49.3475 59.8667 49.7475 58.88 50.5475 57.76C51.3208 56.64 52.6675 55.4667 54.5875 54.24C55.0408 53.9467 55.5075 53.68 55.9875 53.44C56.4408 53.2267 56.9208 52.9867 57.4275 52.72C57.5075 52.6667 57.6142 52.64 57.7475 52.64C57.8008 52.64 57.8275 52.6667 57.8275 52.72C57.8275 52.9067 57.6808 53.0533 57.3875 53.16C56.0008 53.8533 54.9075 54.6 54.1075 55.4C53.3075 56.2 52.6142 57.0267 52.0275 57.88C51.4675 58.7067 51.0808 59.3733 50.8675 59.88C50.6542 60.4133 50.5475 60.8933 50.5475 61.32C50.5475 62.3333 51.0542 62.84 52.0675 62.84C52.5475 62.84 53.1075 62.72 53.7475 62.48C54.3875 62.24 55.0675 61.8533 55.7875 61.32C57.1475 60.28 58.1875 59.1067 58.9075 57.8C59.6542 56.52 60.1742 55.16 60.4675 53.72C60.7608 52.28 60.9075 50.84 60.9075 49.4C60.9075 48.0133 60.8142 46.6667 60.6275 45.36C60.4675 44.0267 60.2808 42.7867 60.0675 41.64C59.8808 40.4933 59.7475 39.5067 59.6675 38.68V38.64C59.6675 38.4267 59.7608 38.2667 59.9475 38.16C60.1342 38.0267 60.3342 37.96 60.5475 37.96C60.7342 37.96 60.8942 38.0133 61.0275 38.12C61.1875 38.2267 61.2808 38.4133 61.3075 38.68C61.3608 39.1067 61.4142 39.76 61.4675 40.64C61.5475 41.52 61.6675 42.7867 61.8275 44.44C61.9875 45.9067 62.0675 47.28 62.0675 48.56C62.0675 51.3067 61.7742 53.64 61.1875 55.56C60.6008 57.48 59.8275 59.0267 58.8675 60.2C57.9342 61.4 56.9475 62.2667 55.9075 62.8C54.8408 63.3333 53.8275 63.6 52.8675 63.6Z" fill="black"/>
</svg>
